<svg width="20" height="21" viewBox="0 0 20 21" fill="none" xmlns="http://www.w3.org/2000/svg">
<g id="send-03">
<path id="Icon" d="M8.75182 10.3638H4.16849M4.09794 10.6068L2.15217 16.419C1.99931 16.8756 1.92288 17.1039 1.97773 17.2445C2.02536 17.3666 2.12767 17.4592 2.2539 17.4944C2.39927 17.535 2.61882 17.4362 3.05793 17.2386L16.9842 10.9718C17.4128 10.7789 17.6271 10.6825 17.6933 10.5485C17.7508 10.4321 17.7508 10.2956 17.6933 10.1792C17.6271 10.0452 17.4128 9.94877 16.9842 9.75589L3.05308 3.48694C2.61529 3.28994 2.3964 3.19144 2.25118 3.23184C2.12506 3.26694 2.02277 3.35926 1.97497 3.48113C1.91993 3.62146 1.99555 3.84927 2.14678 4.3049L4.09848 10.1851C4.12446 10.2634 4.13744 10.3025 4.14257 10.3425C4.14712 10.378 4.14707 10.414 4.14243 10.4495C4.1372 10.4895 4.12412 10.5286 4.09794 10.6068Z" stroke="white" stroke-width="1.66667" stroke-linecap="round" stroke-linejoin="round"/>
</g>
</svg>
