<svg width="18" height="19" viewBox="0 0 18 19" fill="none" xmlns="http://www.w3.org/2000/svg">
<g id="clipboard" clip-path="url(#clip0_2445_47445)">
<path id="Icon" d="M12 3.68188C12.6975 3.68188 13.0462 3.68188 13.3323 3.75855C14.1088 3.9666 14.7153 4.57309 14.9233 5.34954C15 5.63567 15 5.98441 15 6.68188V13.5819C15 14.842 15 15.4721 14.7548 15.9534C14.539 16.3767 14.1948 16.7209 13.7715 16.9366C13.2902 17.1819 12.6601 17.1819 11.4 17.1819H6.6C5.33988 17.1819 4.70982 17.1819 4.22852 16.9366C3.80516 16.7209 3.46095 16.3767 3.24524 15.9534C3 15.4721 3 14.842 3 13.5819V6.68188C3 5.98441 3 5.63567 3.07667 5.34954C3.28472 4.57309 3.8912 3.9666 4.66766 3.75855C4.95378 3.68188 5.30252 3.68188 6 3.68188M7.2 5.18188H10.8C11.22 5.18188 11.4301 5.18188 11.5905 5.10014C11.7316 5.02823 11.8463 4.9135 11.9183 4.77238C12 4.61194 12 4.40192 12 3.98188V3.38188C12 2.96185 12 2.75183 11.9183 2.59139C11.8463 2.45027 11.7316 2.33553 11.5905 2.26363C11.4301 2.18188 11.22 2.18188 10.8 2.18188H7.2C6.77996 2.18188 6.56994 2.18188 6.40951 2.26363C6.26839 2.33553 6.15365 2.45027 6.08175 2.59139C6 2.75183 6 2.96185 6 3.38188V3.98188C6 4.40192 6 4.61194 6.08175 4.77238C6.15365 4.9135 6.26839 5.02823 6.40951 5.10014C6.56994 5.18188 6.77996 5.18188 7.2 5.18188Z" stroke="#344054" stroke-width="2" stroke-linecap="round" stroke-linejoin="round"/>
</g>
<defs>
<clipPath id="clip0_2445_47445">
<rect width="18" height="18" fill="white" transform="translate(0 0.681885)"/>
</clipPath>
</defs>
</svg>
