<?xml version="1.0" encoding="utf-8"?>
<!-- Generator: Adobe Illustrator 25.0.0, SVG Export Plug-In . SVG Version: 6.00 Build 0)  -->
<svg version="1.1" id="Слой_1" xmlns="http://www.w3.org/2000/svg" xmlns:xlink="http://www.w3.org/1999/xlink" x="0px" y="0px"
	 viewBox="0 0 25 25" style="enable-background:new 0 0 25 25;" xml:space="preserve">
<style type="text/css">
	.st0{fill:#2B58F1;}
</style>
<g>
	<path class="st0" d="M20.93,9.46c-0.14-0.52-0.47-1.63-1.31-2.78c-1.78-2.43-4.45-3.05-4.89-3.15c-3.95-0.86-7.02,1.6-7.49,1.99
		C6.95,5.76,3.7,8.55,3.9,12.96c0.01,0.37,0.19,3.42,2.33,5.62c0.91,0.92,1.96,1.49,2.13,1.58c1.04,0.55,1.94,0.76,2.34,0.83
		c0.41,0.08,1.73,0.31,3.38-0.03c2.09-0.44,3.49-1.51,4.08-2.03c2.4-2.1,2.9-4.79,3.02-5.54C21.43,11.77,21.19,10.38,20.93,9.46z
		 M17.69,12.47c-0.03,0.36-0.1,1.01-0.47,1.75c-0.29,0.57-0.63,0.94-0.97,1.31c-0.49,0.53-0.95,0.89-1.34,1.17
		c-1.19,0.86-2.43,1.55-3.37,2.02c-0.06,0.08-0.16,0.1-0.24,0.06c-0.1-0.04-0.14-0.16-0.09-0.25c0.09-0.49,0.18-0.99,0.27-1.48
		c0-0.02,0.01-0.06-0.01-0.1c-0.03-0.1-0.15-0.13-0.16-0.13c-0.4-0.07-0.94-0.22-1.5-0.54c-1.98-1.14-3.14-3.86-2.39-6.25
		c0.05-0.16,1.08-3.22,4.2-3.69c2.71-0.4,4.62,1.5,4.74,1.62C17.99,9.64,17.75,11.83,17.69,12.47z"/>
	<path class="st0" d="M13.17,8.01c-2.06-0.39-4,1.15-4.29,3.04c-0.3,1.93,1.16,4,3.25,4.22c1.96,0.21,3.66-1.28,3.96-3.03
		C16.39,10.43,15.19,8.39,13.17,8.01z M12.32,12.58c-0.67-0.1-1.13-0.74-1.02-1.41s0.74-1.13,1.41-1.02
		c0.67,0.11,1.13,0.74,1.02,1.41C13.63,12.23,12.99,12.69,12.32,12.58z"/>
</g>
</svg>
