<svg xmlns="http://www.w3.org/2000/svg" viewBox="0 0 25.85 26.47"><defs><style>.cls-1{fill:#fff;}</style></defs><g id="Layer_2" data-name="Layer 2"><g id="Layer_1-2" data-name="Layer 1"><g id="Layer_2-2" data-name="Layer 2"><g id="Слой_1" data-name="Слой 1"><path class="cls-1" d="M25.32,9.08A12.39,12.39,0,0,0,23.37,5,12.68,12.68,0,0,0,16.1.27C10.24-1,5.68,2.64,5,3.22c-.43.36-5.26,4.5-5,11.06a13.51,13.51,0,0,0,3.46,8.35A14.24,14.24,0,0,0,6.65,25a12.23,12.23,0,0,0,3.48,1.23,13.14,13.14,0,0,0,5,0,13.38,13.38,0,0,0,6.06-3A13.93,13.93,0,0,0,25.68,15,13.76,13.76,0,0,0,25.32,9.08Zm-4.81,4.47a6.94,6.94,0,0,1-.7,2.6,8.34,8.34,0,0,1-1.44,2,13.28,13.28,0,0,1-2,1.74,37.18,37.18,0,0,1-5,3A.29.29,0,0,1,11,23a.27.27,0,0,1-.15-.34l0,0c.13-.73.27-1.47.4-2.2a.38.38,0,0,0,0-.15A.3.3,0,0,0,11,20a7.09,7.09,0,0,1-2.23-.8A8.22,8.22,0,0,1,5.25,9.93c.07-.24,1.61-4.79,6.24-5.48a8.68,8.68,0,0,1,7,2.41A8.14,8.14,0,0,1,20.51,13.55Z"/><path class="cls-1" d="M13.79,6.92a5.55,5.55,0,0,0-6.38,4.52,5.6,5.6,0,0,0,4.83,6.27,5.52,5.52,0,0,0,5.89-4.5A5.56,5.56,0,0,0,13.79,6.92Zm-1.26,6.8a1.83,1.83,0,0,1,.59-3.62,1.83,1.83,0,0,1-.58,3.62Z"/></g></g></g></g></svg>