<svg width="20" height="21" viewBox="0 0 24 25" fill="none" xmlns="http://www.w3.org/2000/svg">
<g id="star-06">
<path id="Icon" d="M4.5 22.9092V17.9092M4.5 7.90918V2.90918M2 5.40918H7M2 20.4092H7M13 3.90918L11.2658 8.41804C10.9838 9.15127 10.8428 9.51789 10.6235 9.82627C10.4292 10.0996 10.1904 10.3384 9.91709 10.5327C9.60871 10.752 9.24209 10.893 8.50886 11.175L4 12.9092L8.50886 14.6434C9.24209 14.9254 9.60871 15.0664 9.91709 15.2856C10.1904 15.48 10.4292 15.7188 10.6235 15.9921C10.8428 16.3005 10.9838 16.6671 11.2658 17.4003L13 21.9092L14.7342 17.4003C15.0162 16.6671 15.1572 16.3005 15.3765 15.9921C15.5708 15.7188 15.8096 15.48 16.0829 15.2856C16.3913 15.0664 16.7579 14.9254 17.4911 14.6434L22 12.9092L17.4911 11.175C16.7579 10.893 16.3913 10.752 16.0829 10.5327C15.8096 10.3384 15.5708 10.0996 15.3765 9.82627C15.1572 9.51789 15.0162 9.15127 14.7342 8.41804L13 3.90918Z" stroke="black" stroke-width="2" stroke-linecap="round" stroke-linejoin="round"/>
</g>
</svg>
