<svg width="20" height="21" viewBox="0 0 20 21" fill="none" xmlns="http://www.w3.org/2000/svg">
<g id="stop">
<path id="Icon" d="M2.5 6.63647C2.5 5.23634 2.5 4.53628 2.77248 4.0015C3.01217 3.53109 3.39462 3.14864 3.86502 2.90896C4.3998 2.63647 5.09987 2.63647 6.5 2.63647H13.5C14.9001 2.63647 15.6002 2.63647 16.135 2.90896C16.6054 3.14864 16.9878 3.53109 17.2275 4.0015C17.5 4.53628 17.5 5.23634 17.5 6.63647V13.6365C17.5 15.0366 17.5 15.7367 17.2275 16.2715C16.9878 16.7419 16.6054 17.1243 16.135 17.364C15.6002 17.6365 14.9001 17.6365 13.5 17.6365H6.5C5.09987 17.6365 4.3998 17.6365 3.86502 17.364C3.39462 17.1243 3.01217 16.7419 2.77248 16.2715C2.5 15.7367 2.5 15.0366 2.5 13.6365V6.63647Z" stroke="#FFFFFF" stroke-width="2" stroke-linecap="round" stroke-linejoin="round"/>
</g>
</svg>
