<svg width="18" height="19" viewBox="0 0 18 19" fill="none" xmlns="http://www.w3.org/2000/svg">
<g id="thumbs-up" clip-path="url(#clip0_2445_47448)">
<path id="Icon" d="M5.25 17.1819V8.93188M1.5 10.4319V15.6819C1.5 16.5103 2.17157 17.1819 3 17.1819H13.0697C14.1802 17.1819 15.1247 16.3716 15.2935 15.274L16.1012 10.024C16.3109 8.66106 15.2564 7.43188 13.8774 7.43188H11.25C10.8358 7.43188 10.5 7.0961 10.5 6.68188V4.03126C10.5 3.00988 9.672 2.18188 8.65062 2.18188C8.407 2.18188 8.18623 2.32536 8.08729 2.54798L5.44795 8.48649C5.32758 8.75733 5.05899 8.93188 4.76259 8.93188H3C2.17157 8.93188 1.5 9.60346 1.5 10.4319Z" stroke="#344054" stroke-width="2" stroke-linecap="round" stroke-linejoin="round"/>
</g>
<defs>
<clipPath id="clip0_2445_47448">
<rect width="18" height="18" fill="white" transform="translate(0 0.681885)"/>
</clipPath>
</defs>
</svg>
