<svg width="18" height="19" viewBox="0 0 18 19" fill="none" xmlns="http://www.w3.org/2000/svg">
<g id="thumbs-down" clip-path="url(#clip0_2445_47447)">
<path id="Icon" d="M12.7498 2.18188V10.4319M16.4998 8.03188V4.58188C16.4998 3.74181 16.4998 3.32177 16.3363 3.0009C16.1925 2.71866 15.963 2.48919 15.6808 2.34537C15.3599 2.18188 14.9399 2.18188 14.0998 2.18188H6.0883C4.99219 2.18188 4.44414 2.18188 4.00148 2.38246C3.61134 2.55924 3.27977 2.8437 3.04572 3.20242C2.78017 3.60943 2.69684 4.15111 2.53017 5.23448L2.13786 7.78448C1.91803 9.21337 1.80811 9.92781 2.02015 10.4837C2.20625 10.9717 2.55628 11.3797 3.01024 11.6378C3.52744 11.9319 4.25029 11.9319 5.696 11.9319H6.2998C6.71984 11.9319 6.92985 11.9319 7.09029 12.0136C7.23141 12.0855 7.34615 12.2003 7.41805 12.3414C7.4998 12.5018 7.4998 12.7118 7.4998 13.1319V15.3325C7.4998 16.3539 8.32779 17.1819 9.34917 17.1819C9.59279 17.1819 9.81356 17.0384 9.9125 16.8158L12.4331 11.1445C12.5477 10.8866 12.605 10.7576 12.6956 10.663C12.7757 10.5794 12.8741 10.5155 12.983 10.4763C13.1062 10.4319 13.2474 10.4319 13.5296 10.4319H14.0998C14.9399 10.4319 15.3599 10.4319 15.6808 10.2684C15.963 10.1246 16.1925 9.89511 16.3363 9.61287C16.4998 9.292 16.4998 8.87196 16.4998 8.03188Z" stroke="#344054" stroke-width="2" stroke-linecap="round" stroke-linejoin="round"/>
</g>
<defs>
<clipPath id="clip0_2445_47447">
<rect width="18" height="18" fill="white" transform="translate(0 0.681885)"/>
</clipPath>
</defs>
</svg>
