<svg width="18" height="19" viewBox="0 0 18 19" fill="none" xmlns="http://www.w3.org/2000/svg">
<g id="trash-01" clip-path="url(#clip0_2445_47446)">
<path id="Icon" d="M12 5.18188V4.58188C12 3.74181 12 3.32177 11.8365 3.0009C11.6927 2.71866 11.4632 2.48919 11.181 2.34537C10.8601 2.18188 10.4401 2.18188 9.6 2.18188H8.4C7.55992 2.18188 7.13988 2.18188 6.81901 2.34537C6.53677 2.48919 6.3073 2.71866 6.16349 3.0009C6 3.32177 6 3.74181 6 4.58188V5.18188M7.5 9.30688V13.0569M10.5 9.30688V13.0569M2.25 5.18188H15.75M14.25 5.18188V13.5819C14.25 14.842 14.25 15.4721 14.0048 15.9534C13.789 16.3767 13.4448 16.7209 13.0215 16.9366C12.5402 17.1819 11.9101 17.1819 10.65 17.1819H7.35C6.08988 17.1819 5.45982 17.1819 4.97852 16.9366C4.55516 16.7209 4.21095 16.3767 3.99524 15.9534C3.75 15.4721 3.75 14.842 3.75 13.5819V5.18188" stroke="#344054" stroke-width="2" stroke-linecap="round" stroke-linejoin="round"/>
</g>
<defs>
<clipPath id="clip0_2445_47446">
<rect width="18" height="18" fill="white" transform="translate(0 0.681885)"/>
</clipPath>
</defs>
</svg>
